<svg width="34" height="34" viewBox="0 0 34 34" fill="none" xmlns="http://www.w3.org/2000/svg">
<path d="M17 31.875C13.0549 31.875 9.27139 30.3078 6.48179 27.5182C3.69218 24.7286 2.125 20.9451 2.125 17C2.125 13.0549 3.69218 9.27139 6.48179 6.48179C9.27139 3.69218 13.0549 2.125 17 2.125C20.9451 2.125 24.7286 3.69218 27.5182 6.48179C30.3078 9.27139 31.875 13.0549 31.875 17C31.875 20.9451 30.3078 24.7286 27.5182 27.5182C24.7286 30.3078 20.9451 31.875 17 31.875ZM17 34C21.5087 34 25.8327 32.2089 29.0208 29.0208C32.2089 25.8327 34 21.5087 34 17C34 12.4913 32.2089 8.1673 29.0208 4.97919C25.8327 1.79107 21.5087 0 17 0C12.4913 0 8.1673 1.79107 4.97919 4.97919C1.79107 8.1673 0 12.4913 0 17C0 21.5087 1.79107 25.8327 4.97919 29.0208C8.1673 32.2089 12.4913 34 17 34Z" fill="white"/>
<path d="M11.167 12.2952C11.164 12.3639 11.1752 12.4324 11.1997 12.4965C11.2243 12.5607 11.2617 12.6191 11.3097 12.6683C11.3576 12.7175 11.4151 12.7563 11.4787 12.7824C11.5422 12.8085 11.6104 12.8213 11.6791 12.8201H13.4322C13.7255 12.8201 13.9592 12.58 13.9975 12.2889C14.1887 10.8949 15.145 9.87913 16.8492 9.87913C18.307 9.87913 19.6415 10.608 19.6415 12.3611C19.6415 13.7105 18.8467 14.331 17.5908 15.2745C16.1607 16.3136 15.0281 17.527 15.1088 19.4969L15.1152 19.958C15.1174 20.0974 15.1744 20.2304 15.2738 20.3282C15.3732 20.426 15.507 20.4808 15.6465 20.4807H17.3698C17.5107 20.4807 17.6459 20.4248 17.7455 20.3251C17.8451 20.2255 17.9011 20.0904 17.9011 19.9495V19.7264C17.9011 18.2006 18.4812 17.7565 20.0473 16.5686C21.3415 15.5848 22.6908 14.4925 22.6908 12.1996C22.6908 8.98875 19.9793 7.4375 17.0107 7.4375C14.3183 7.4375 11.3688 8.69125 11.167 12.2952ZM14.4756 24.5416C14.4756 25.6742 15.3787 26.5115 16.6218 26.5115C17.916 26.5115 18.8063 25.6742 18.8063 24.5416C18.8063 23.3686 17.9138 22.5441 16.6197 22.5441C15.3787 22.5441 14.4756 23.3686 14.4756 24.5416Z" fill="white"/>
</svg>
