<?xml version="1.0" encoding="utf-8"?>
<!-- Generator: Adobe Illustrator 19.0.0, SVG Export Plug-In . SVG Version: 6.00 Build 0)  -->
<svg version="1.1" id="Layer_1" xmlns="http://www.w3.org/2000/svg" xmlns:xlink="http://www.w3.org/1999/xlink" x="0px" y="0px"
	 viewBox="-587 314 24 24" style="enable-background:new -587 314 24 24;" xml:space="preserve">
<style type="text/css">
	.st0{fill:#FFFFFF;}
</style>
<g id="info">
</g>
<g id="icons">
	<g id="settings2">
		<path class="st0" d="M-582,325h14c2.2,0,4-1.8,4-4s-1.8-4-4-4h-14c-2.2,0-4,1.8-4,4S-584.2,325-582,325z M-582,319
			c1.1,0,2,0.9,2,2s-0.9,2-2,2s-2-0.9-2-2S-583.1,319-582,319z"/>
		<path class="st0" d="M-568,327h-14c-2.2,0-4,1.8-4,4s1.8,4,4,4h14c2.2,0,4-1.8,4-4S-565.8,327-568,327z M-568,333
			c-1.1,0-2-0.9-2-2s0.9-2,2-2s2,0.9,2,2S-566.9,333-568,333z"/>
	</g>
</g>
</svg>
