<?xml version="1.0" encoding="utf-8"?>
<!-- Generator: Adobe Illustrator 19.0.0, SVG Export Plug-In . SVG Version: 6.00 Build 0)  -->
<svg version="1.1" id="Layer_1" xmlns="http://www.w3.org/2000/svg" xmlns:xlink="http://www.w3.org/1999/xlink" x="0px" y="0px"
	 viewBox="-587 314 24 24" style="enable-background:new -587 314 24 24;" xml:space="preserve">
<style type="text/css">
	.st0{fill:#FFFFFF;}
</style>
<path class="st0" d="M-575,317c0,0-6.2,5.3-9.6,8.2c-0.2,0.2-0.4,0.5-0.4,0.8c0,0.6,0.4,1,1,1h2v7c0,0.6,0.4,1,1,1h3
	c0.6,0,1-0.4,1-1v-4h4v4c0,0.6,0.4,1,1,1h3c0.6,0,1-0.4,1-1v-7h2c0.6,0,1-0.4,1-1c0-0.3-0.2-0.6-0.4-0.8
	C-568.8,322.3-575,317-575,317z"/>
</svg>
