<?xml version="1.0" encoding="utf-8"?>
<!-- Generator: Adobe Illustrator 19.0.0, SVG Export Plug-In . SVG Version: 6.00 Build 0)  -->
<svg version="1.1" id="Layer_1" xmlns="http://www.w3.org/2000/svg" xmlns:xlink="http://www.w3.org/1999/xlink" x="0px" y="0px"
	 viewBox="-583 310 32 32" style="enable-background:new -583 310 32 32;" xml:space="preserve">
<style type="text/css">
	.st0{fill:none;stroke:#FFFFFF;stroke-width:2;stroke-linecap:round;stroke-linejoin:round;}
</style>
<title></title>
<g id="Layer_2">
	<rect x="-563" y="333" class="st0" width="8" height="8"/>
	<polygon class="st0" points="-571,333 -579,333 -579,341 -571,341 -563,341 -563,333 	"/>
	<polygon class="st0" points="-563,325 -563,317 -571,317 -571,325 -571,333 -563,333 	"/>
	<polygon class="st0" points="-559,317 -555,317 -555,311 -559,311 -563,311 -563,317 	"/>
	<polygon class="st0" points="-559,325 -563,325 -563,333 -559,333 -555,333 -555,325 	"/>
	<polygon class="st0" points="-559,317 -563,317 -563,325 -559,325 -555,325 -555,317 	"/>
</g>
</svg>
